<svg role="img" viewBox="0 0 24 24" xmlns="http://www.w3.org/2000/svg">
  <title>Uber Eats</title>
  <!-- decision: Pato — real Uber Eats app mark (green #06C167 + white "eats"),
       not the Menulog M that briefly shipped here. Paired with chip label. -->
  <rect width="24" height="24" rx="6" fill="#06C167"/>
  <!-- "eats" wordmark from brand lockup, recentered + scaled for 24×24 chip -->
  <g fill="#FFFFFF" transform="translate(1.15 -3.55) scale(0.905)">
    <path d="M0 12.9864v7.9716h5.7222v-1.3666H1.5458v-1.971h4.0647v-1.314H1.5458v-1.9556h4.1764v-1.3644zm14.5608.4097v1.6861h-1.1519v1.338h1.1545v3.143c0 .7927.5712 1.4209 1.6005 1.4209h1.6425L17.8 19.646h-1.1412c-.3482 0-.5714-.1509-.5714-.464v-2.7683H17.8v-1.3316h-1.7062v-1.686zm-5.2974 1.5275c-1.7348-.0103-3.141 1.4035-3.1214 3.1382.0196 1.7346 1.4575 3.1163 3.1915 3.0668a2.9915 2.9915 0 0 0 1.912-.6655v.532h1.5175v-5.9129h-1.509v.5257a3.0047 3.0047 0 0 0-1.9205-.6835c-.0244-.0007-.0492-.0006-.0701-.0008zm11.771.0077c-1.5855 0-2.7002.6437-2.7002 1.8854 0 .8607.6132 1.4213 1.936 1.695l1.4478.3286c.5694.1095.7224.2585.7224.4906 0 .3701-.438.6022-1.1279.6022-.876 0-1.3774-.1907-1.5723-.8477h-1.533c.219 1.2307 1.1563 2.05 3.0484 2.05h.0022c1.752 0 2.7422-.819 2.7422-1.9534 0-.8059-.5847-1.4084-1.8089-1.6668l-1.2943-.2605c-.7511-.1358-.988-.2738-.988-.5454 0-.357.3616-.5757 1.0295-.5757.7227 0 1.2527.1925 1.406.8473h1.5175c-.0854-1.2286-.9899-2.0497-2.8273-2.0497zM9.467 16.1815c1.0092.0096 1.8188.8369 1.8067 1.8461.0014 1.0046-.8198 1.816-1.8243 1.8025-1.0075-.0048-1.8203-.8256-1.8155-1.833.0048-1.0076.8255-1.8204 1.833-1.8156z"/>
  </g>
</svg>
